<svg width="125" height="42.318" version="1.1" viewBox="0 0 33.073 11.197" xmlns="http://www.w3.org/2000/svg">
 <defs>
  <linearGradient id="a" x2="508" y2="285.75" gradientTransform="scale(.065104 .039182)" gradientUnits="userSpaceOnUse">
   <stop stop-color="#59b9ff" offset="0"/>
   <stop stop-color="#002a7f" offset="1"/>
  </linearGradient>
  <style>.cls-1{fill:#fff;}</style>
 </defs>
 <rect width="33.073" height="11.197" rx="1.8604" ry="1.8604" fill="url(#a)" stroke-width=".065104"/>
 <g fill="#fff" stroke-width=".66146" aria-label="Přidat">
  <path d="m11.037 4.0098q0.47255 0 0.7239 0.25638 0.25638 0.25638 0.25638 0.72893v0.50271q0 0.47255-0.25638 0.72893-0.25135 0.25638-0.7239 0.25638h-0.60325v0.40719l0.30162 0.050271v0.58817h-1.4076v-0.58817l0.30162-0.050271v-2.2421l-0.30162-0.050271v-0.58817zm-0.15081 0.69374h-0.45244v1.0858h0.45244q0.17595 0 0.25135-0.075406 0.07541-0.075406 0.07541-0.25135v-0.41222q0-0.186-0.07541-0.26644-0.075406-0.080433-0.25135-0.080433z"/>
  <path d="m12.696 6.9456v-1.2719q0-0.39714 0.20611-0.60325 0.21114-0.20611 0.60828-0.20611h0.97023v0.97023h-0.55298l-0.05027-0.33179h-0.20611q-0.23124 0-0.23124 0.23125v1.2115l0.27649 0.050271v0.53287h-1.297v-0.53287zm1.2166-2.4834h-0.6133l-0.44741-0.81941h0.5379l0.19103 0.32173h0.05027l0.19103-0.32173h0.5379z"/>
  <path d="m14.857 4.8644h1.0205v2.0812l0.27649 0.050271v0.53287h-1.297v-0.53287l0.27649-0.050271v-1.4981l-0.27649-0.050271zm0.24633-0.79931q0-0.16087 0.11562-0.27649 0.12065-0.12065 0.28152-0.12065 0.16087 0 0.27649 0.12065 0.12065 0.11562 0.12065 0.27649 0 0.16589-0.12065 0.28152-0.11562 0.11562-0.27649 0.11562-0.16087 0-0.28152-0.11562-0.11562-0.11562-0.11562-0.28152z"/>
  <path d="m17.612 6.8903h0.48763v-1.3875h-0.48763q-0.23627 0-0.23627 0.23125v0.91996q0 0.12568 0.0553 0.18097 0.0553 0.055298 0.18098 0.055298zm0.48763-2.3979-0.27146-0.050271v-0.53287h1.0155v3.0364l0.27649 0.050271v0.53287h-1.679q-0.39714 0-0.60325-0.20611-0.20611-0.20611-0.20611-0.60325v-1.0456q0-0.39714 0.20611-0.60325 0.20611-0.20611 0.60325-0.20611h0.65855z"/>
  <path d="m19.724 5.5028v-0.63844h1.0507q0.39714 0 0.60325 0.20611 0.20611 0.20611 0.20611 0.60325v1.2719l0.27649 0.050271v0.53287h-1.6288q-0.38206 0-0.58314-0.20108-0.20108-0.20108-0.20108-0.57811v-0.050271q0-0.38206 0.20108-0.58314 0.20108-0.20108 0.58314-0.20108h0.60828v-0.18097q0-0.23125-0.23627-0.23125zm1.116 0.98028h-0.41222q-0.23627 0-0.23627 0.23125t0.23627 0.23125h0.41222z"/>
  <path d="m22.061 5.5028v-0.58817h0.22119q0.15081 0 0.15081-0.15081v-0.3519h0.68871v0.45244h0.54292v0.63844h-0.54292v1.1763q0 0.12568 0.0553 0.18097 0.0553 0.055298 0.18098 0.055298h0.38709v0.63844h-0.55298q-0.81439 0-0.81439-0.80936v-1.2417z"/>
 </g>
</svg>
