<svg width="720" height="243.75" version="1.1" viewBox="0 0 190.5 64.492" xmlns="http://www.w3.org/2000/svg">
 <defs>
  <linearGradient id="a" x2="508" y2="285.75" gradientTransform="scale(.375 .22569)" gradientUnits="userSpaceOnUse">
   <stop stop-color="#59b9ff" offset="0"/>
   <stop stop-color="#002a7f" offset="1"/>
  </linearGradient>
  <style>.cls-1{fill:#fff;}</style>
 </defs>
 <rect width="190.5" height="64.493" rx="4.9609" ry="4.9609" fill="url(#a)" stroke-width=".375"/>
 <g transform="matrix(.35 0 0 .35 6.933 -4.7955)">
  <g transform="matrix(.73384 0 0 .73495 150.47 66.146)" fill="#fff">
   <path transform="matrix(.97741 0 0 .97714 17.681 7.3286e-7)" d="m14.42 9.1001c4.307 0.06618 8.5972 0.55181 12.81 1.45l1.66 0.36v-5.28c-0.0907-1.1777-0.6139-2.2813-1.4683-3.0969-0.8544-0.81565-1.981-1.2871-3.1617-1.3231h-1.35v2.35c-1.38-0.21-2.8-0.39-4.38-0.51v-2.31l-1-0.29c-2.0229-0.60009-4.1771-0.60009-6.2 0l-1 0.29v2.31c-1.58 0.12-3 0.3-4.38 0.51v-2.36h-1.33c-1.1387 0.04125-2.227 0.48332-3.072 1.2478-0.84494 0.76448-1.3934 1.8033-1.548 2.9322v5.52l1.65-0.36c4.2-0.89259 8.4767-1.3749 12.77-1.44m-13-3.47c0.0913-0.81223 0.46834-1.5662 1.0634-2.1264s1.3703-0.89128 2.1866-0.93355v2.58c2.2936-0.39511 4.607-0.6655 6.93-0.81h0.18v-2.58c1.7671-0.53328 3.6529-0.53328 5.42 0v2.57h0.19c2.3196 0.14507 4.6296 0.41547 6.92 0.81v-2.57c0.818 0.03996 1.5956 0.36993 2.1928 0.93043 0.5971 0.5605 0.9756 1.3157 1.0672 2.1296v3.59c-4.3182-0.91982-8.7155-1.4188-13.13-1.49-4.3945 0.07442-8.7715 0.57341-13.07 1.49z"/>
   <path transform="matrix(.97741 0 0 .97714 0 11.491)" d="m64.35 8c-8.8-5.06-20.09-7.91-31.77-8h-0.1c-11.68 0.11-23 3-31.72 8h-0.07l-0.69 0.37v59.72c0.0086373 1.1671 0.26546 2.3192 0.75336 3.3795 0.4879 1.0602 1.1958 2.0047 2.0766 2.7705l26.69 23.42c0.8362 0.714 1.9004 1.1065 3 1.1065s2.1638-0.3925 3-1.1065l26.72-23.42c0.8823-0.7645 1.5913-1.7087 2.0793-2.7693s0.744-2.2133 0.7507-3.3807v-59.71zm-0.65 60.09c-0.0046 0.9778-0.2184 1.9434-0.6272 2.8317s-1.0031 1.6788-1.7428 2.3183l-26.68 23.41c-0.5914 0.5036-1.3433 0.7803-2.12 0.7803s-1.5286-0.2767-2.12-0.7803l-26.68-23.41c-0.73845-0.6384-1.332-1.4273-1.7407-2.3138-0.40873-0.8864-0.6233-1.8501-0.62929-2.8262v-2.09c0.4137 0.6343 0.91538 1.2067 1.49 1.7l26.66 23.41 0.32 0.26 2.7 2.37 2.7-2.37 0.09-0.08c0.08 0 0.15-0.12 0.23-0.18l26.68-23.41c0.5605-0.4942 1.0546-1.0589 1.47-1.68zm0-6.55c0.0072 1.3134-0.3719 2.6003-1.09 3.7-0.3481 0.5591-0.7798 1.0616-1.28 1.49l-1.33 1.09-25.35 22.27c-0.0622 0.0587-0.1291 0.1122-0.2 0.16-0.5494 0.3896-1.2065 0.5989-1.88 0.5989s-1.3306-0.2093-1.88-0.5989l-0.23-0.19-25.46-22.24-1.3-1.14c-0.50092-0.4343-0.93554-0.9397-1.29-1.5-0.71167-1.0878-1.0906-2.3601-1.09-3.66v-52.28c8.32-4.79 19.18-7.73 31.09-7.84h0.09c11.9 0.11 22.76 3 31.08 7.84z"/>
   <path transform="matrix(.97741 0 0 .97714 49.779 42.82)" d="m4.79 6.0078c0.08027-1.9096 0.35502-3.8061 0.82-5.66 0 0-5.61-2.17-5.61 4.33 0 6.11 8.07 5.64 9.07 12.5v-7.83s-4.31-0.9-4.31-3.34"/>
   <path transform="matrix(.97741 0 0 .97714 5.8645 54.7)" d="m25.88 19.73c0-7.49-7-19.73-22.06-19.73 0 0.48-0.4 1.9-0.91 1.9h-2.91v11.12l0.92-0.93 0.46-0.47 9.22-9.35c1.9263 0.58469 3.7486 1.4688 5.4 2.62l-12.88 10.65 1 1.19c0.13767 0.1735 0.20224 0.3941 0.17983 0.6144s-0.13006 0.4234-0.29983 0.5656l-1.55 1.32-0.34 0.3-0.69 0.59 7.37 6.46 1.9-1.56c0.1818-0.1576 0.4144-0.2444 0.655-0.2444s0.4732 0.0868 0.655 0.2444l2 2 2-2.78s-3.62-10.09 4.88-14.64c2.1676 2.8835 3.4437 6.3398 3.67 9.94-1.1523 0.4557-2.1288 1.2688-2.7856 2.3196-0.6567 1.0508-0.9598 2.2849-0.8644 3.5204l-6.79 5.83 13.35 11.81v-4.37c0.0052-0.2369 0.1038-0.4623 0.2741-0.627s0.399-0.2557 0.6359-0.253h2.12l3.26-7.62s-7.87-2.92-7.87-10.41"/>
   <path transform="matrix(.97741 0 0 .97714 39.175 62.263)" d="m5 21.28-5 7.35 18.8-16.5c0.3557-0.3265 0.6391-0.7239 0.8319-1.1665 0.1929-0.4426 0.2911-0.9207 0.2881-1.4035v-9.56c-1.28 7.76-15 12.35-15 21.29"/>
   <path transform="matrix(.97741 0 0 .97714 19.446 27.19)" d="m0.35455 2.1042c0.64 0 2.61-0.5 2.61-0.9s-0.53-2.06-2.66-0.64c-0.11555 0.076989-0.19776 0.19495-0.23 0.33-0.08 0.39-0.2 1.21 0.28 1.21"/>
   <path transform="matrix(.97741 0 0 .97714 4.887 16.24)" d="m36.17 47.03c1.7591 1.4966 3.8857 2.4978 6.16 2.9 3.85 0.69 9-0.83 9-4.15 0-7.73-8.32-5.25-8.32-13.9s9.43-10.36 12-4.33v-21.17c-8.4738-4.1874-17.798-6.3705-27.25-6.38 1.4066 0.22418 2.7893 0.57905 4.13 1.06 0.48 0.17 1 0.35 1.4 0.55 6.34 2.77 10.26 8.1 10.26 13.87v0.35c-0.766-1.1068-1.6662-2.1145-2.68-3-3.69-3.19-10.8-6.59-23.64-4.72h-0.84c-1.9-0.23-2.87-1.41-2.87-3.95v-1.68c0-0.4 0.09-0.72 0.12-0.93-4.7371 1.0109-9.3224 2.6346-13.64 4.83v29.71c0.07 0 18.93-3.8 36.14 10.94m3.79 0.78c-1.0314-0.4417-1.9892-1.0386-2.84-1.77-7.82-6.66-15.09-9.61-21.63-10.85 3.3536-3.1917 6.3695-6.7203 9-10.53v0.08c0.08 5.74 4.43 7.92 8.64 10 3.39 1.69 6.85 3.43 8.67 7 0.5116 1.0415 0.6116 2.2386 0.2799 3.3505s-1.0713 2.0586-2.0699 2.6495m1-9.28c-2.06-2.22-4.79-3.59-7.35-4.87-4.23-2.11-7.89-3.93-8-9 0.0018-0.8042 0.1266-1.6035 0.37-2.37 0.11-0.21 0.22-0.41 0.31-0.62 0.1038-0.1984 0.1972-0.402 0.28-0.61 0.08-0.19 0.15-0.37 0.22-0.56s0.13-0.39 0.19-0.58c-0.0024-0.05-0.0024-0.1 0-0.15 0.046-0.1374 0.0827-0.2777 0.11-0.42 0-0.18 0.08-0.36 0.11-0.53s0-0.07 0-0.11c1.5231 1.1013 3.2105 1.9552 5 2.53 3.34 1.34 7 2.82 8.5 5.9-0.7079 1.4934-1.0703 3.1273-1.06 4.78 0 3.52 0.62 5.42 1.33 6.72m-0.9-24.74c1.3891 1.1721 2.5343 2.606 3.37 4.22-0.1835 2.6612-0.8975 5.2589-2.1 7.64-1.88-2.92-5.55-4.4-8.69-5.65-2.89-1.16-5.4-2.16-5.4-3.83-0.0317-1.2927-0.4421-2.5481-1.18-3.61l-0.09-0.15c-0.0627-0.1145-0.1329-0.2247-0.21-0.33-0.0752-0.1223-0.1587-0.2392-0.25-0.35-0.0476-0.083-0.1047-0.1601-0.17-0.23-0.0812-0.1078-0.168-0.2113-0.26-0.31l-0.05-0.06c-0.1258-0.1375-0.2593-0.2677-0.4-0.39-0.2602-0.2521-0.5376-0.486-0.83-0.7l-0.46-0.31-0.47-0.27-0.48-0.25-0.33-0.15-0.5-0.19c9.75-0.6 15.38 2.21 18.47 4.88m-25.06-4.15c0.2405-0.0787 0.4885-0.13232 0.74-0.16h1.33c1.46 0 5.24 0.29 7.34 3.12l0.21 0.29c0.1718 0.2591 0.3255 0.5297 0.46 0.81 0.1498 0.2919 0.2736 0.5964 0.37 0.91 0.0652 0.1763 0.1186 0.3567 0.16 0.54 0.05 0.19 0.09 0.38 0.13 0.58s0 0.3 0.08 0.46 0 0.1 0 0.15c0.0858 0.4428 0.1459 0.8902 0.18 1.34-0.0175 0.7459-0.163 1.4833-0.43 2.18l-0.05 0.14c-0.0554 0.171-0.1222 0.338-0.2 0.5-0.07 0.17-0.15 0.34-0.23 0.52l-0.09 0.12c-1.14 1.41-1.65 2.16-3.44 2.46-1.2-0.0451-2.3925-0.2092-3.56-0.49-1.3622-0.19-2.7428-0.2101-4.11-0.06-1.11 0.13-2.59 0-2.59-1.42-0.0097-0.3253 0.1032-0.6427 0.3161-0.8889 0.2128-0.2462 0.5106-0.4037 0.8339-0.4411 1.29 0 4.89 1.4 4.89-0.47 0-1.51-3.31-0.36-4.84-0.36s-1.61-0.68-1.61-1.89c0-1.81 1.28-1.83 1.28-2.58 0-0.57-0.08-0.81-0.23-0.81-0.36 0-0.7 1.64-1.15 1.64-0.69 0-1.3-1.36-1.3-2.28 0-0.75 3.75-3.09 5.6-3.91"/>
  </g>
  <path class="cls-1" d="m345.05 86.953a49.495 49.495 0 0 0-12.347-3.7986 33.919 33.919 0 0 0-1.5816 3.2149 45.978 45.978 0 0 0-13.702 0 34.065 34.065 0 0 0-1.5816-3.2149 49.843 49.843 0 0 0-12.356 3.808c-7.8137 11.561-9.9319 22.834-8.8728 33.947a49.768 49.768 0 0 0 15.143 7.6019 36.574 36.574 0 0 0 3.2432-5.2295 32.206 32.206 0 0 1-5.1071-2.4382c0.42833-0.31067 0.84726-0.63074 1.2521-0.94141a35.571 35.571 0 0 0 30.276 0c0.4095 0.33421 0.82843 0.65427 1.2521 0.94141a32.328 32.328 0 0 1-5.1166 2.443 36.244 36.244 0 0 0 3.2432 5.2248 49.542 49.542 0 0 0 15.152-7.5972c1.2427-12.888-2.1229-24.058-8.8963-33.961zm-30.714 27.122c-2.9513 0-5.3896-2.6783-5.3896-5.9732s2.3536-5.9968 5.3802-5.9968 5.4461 2.7018 5.3943 5.9968c-0.0518 3.2949-2.377 5.9732-5.3848 5.9732zm19.883 0c-2.956 0-5.3849-2.6783-5.3849-5.9732s2.3535-5.9968 5.3849-5.9968c3.0313 0 5.4319 2.7018 5.3802 5.9968-0.0518 3.2949-2.3723 5.9732-5.3802 5.9732z" stroke-width=".4707"/>
  <g fill="none" stroke="#fff" stroke-width=".56696">
   <path d="m231.18 120.4 29.14-29.14"/>
   <path d="m231.18 91.263 29.14 29.14"/>
  </g>
 </g>
</svg>
