<svg width="200" height="200" version="1.1" viewBox="0 0 52.917 52.916" xmlns="http://www.w3.org/2000/svg" xmlns:xlink="http://www.w3.org/1999/xlink">
 <defs>
  <linearGradient id="b">
   <stop stop-color="#59b9ff" offset="0"/>
   <stop stop-color="#002a7f" offset="1"/>
  </linearGradient>
  <linearGradient id="a" x1="177.25" x2="520.2" y1="31.157" y2="163.05" gradientTransform="matrix(.85866 0 0 .85866 -2.9854 7.915)" gradientUnits="userSpaceOnUse" xlink:href="#b"/>
 </defs>
 <g transform="matrix(.34859 0 0 .34859 -62.086 3.4001)" fill="url(#a)" stroke-width=".56796">
  <path d="m199.74 60.398 0.59532 2.8575h4.9212q1.3891 0 1.9844-0.59531 0.59531-0.59531 0.59531-1.9844v-0.51594q0-1.3891-0.59531-1.9844-0.59531-0.59531-1.9844-0.59531h-2.9369q-7.7788 0-7.7788-8.2947v-0.55562q0-3.7703 1.9844-5.7547 2.0241-2.0241 5.7944-2.0241h10.716v8.3344h-4.8419l-0.59531-2.8575h-4.1275q-1.3891 0-1.9844 0.59531-0.59531 0.59531-0.59531 1.9844v0.51594q0 1.3891 0.59531 1.9844 0.59532 0.59531 1.9844 0.59531h2.9766q7.7391 0 7.7391 8.3344v0.55562q0 4.3656-2.3416 6.0722-2.3416 1.6669-7.0644 1.6669h-9.8425v-8.3344z"/>
  <path d="m223.95 60.398 0.59532 2.8575h4.9212q1.3891 0 1.9844-0.59531 0.59531-0.59531 0.59531-1.9844v-0.51594q0-1.3891-0.59531-1.9844-0.59531-0.59531-1.9844-0.59531h-2.9369q-7.7788 0-7.7788-8.2947v-0.55562q0-3.7703 1.9844-5.7547 2.0241-2.0241 5.7944-2.0241h10.716v8.3344h-4.8419l-0.59531-2.8575h-4.1275q-1.3891 0-1.9844 0.59531-0.59531 0.59531-0.59531 1.9844v0.51594q0 1.3891 0.59531 1.9844 0.59532 0.59531 1.9844 0.59531h2.9766q7.7391 0 7.7391 8.3344v0.55562q0 4.3656-2.3416 6.0722-2.3416 1.6669-7.0644 1.6669h-9.8425v-8.3344z"/>
  <path d="m256.05 40.952q3.7306 0 5.715 2.0241 2.0241 2.0241 2.0241 5.7547v3.9688q0 3.7306-2.0241 5.7547-1.9844 2.0241-5.715 2.0241h-4.7625v3.2147l2.3812 0.39688v4.6434h-11.112v-4.6434l2.3812-0.39688v-17.701l-2.3812-0.39688v-4.6434zm-1.1906 5.4769h-3.5719v8.5725h3.5719q1.3891 0 1.9844-0.59531 0.59531-0.59531 0.59531-1.9844v-3.2544q0-1.4684-0.59531-2.1034t-1.9844-0.635z"/>
  <path d="m273.36 60.398 0.59531 2.8575h4.9212q1.3891 0 1.9844-0.59531 0.59531-0.59531 0.59531-1.9844v-0.51594q0-1.3891-0.59531-1.9844-0.59531-0.59531-1.9844-0.59531h-2.9369q-7.7788 0-7.7788-8.2947v-0.55562q0-3.7703 1.9844-5.7547 2.0241-2.0241 5.7944-2.0241h10.716v8.3344h-4.8419l-0.59531-2.8575h-4.1275q-1.3891 0-1.9844 0.59531-0.59531 0.59531-0.59531 1.9844v0.51594q0 1.3891 0.59531 1.9844 0.59531 0.59531 1.9844 0.59531h2.9766q7.7391 0 7.7391 8.3344v0.55562q0 4.3656-2.3416 6.0722-2.3416 1.6669-7.0644 1.6669h-9.8425v-8.3344zm7.1041-22.225h-4.8419l-3.5322-6.4691h4.2466l1.5081 2.54h0.39687l1.5081-2.54h4.2466z"/>
  <path d="m312.61 68.733h-12.065q-3.7306 0-5.7547-1.9844-2.0241-2.0241-2.0241-5.7547v-12.263q0-3.7306 2.0241-5.7547t5.7547-2.0241h10.874v8.5725h-4.8419l-0.59531-3.0956h-4.2862q-1.3891 0-1.9844 0.59531-0.59531 0.59531-0.59531 1.9844v11.668q0 1.3891 0.59531 1.9844 0.59532 0.59531 1.9844 0.59531h4.7625v-4.8419h-2.6194v-5.4372h8.7709z"/>
  <path d="m187.84 79.136q2.6776 0 4.0468 1.3996 1.3996 1.3692 1.3996 4.0468v10.436q0 2.6472-1.3996 4.0468-1.3692 1.3692-4.0468 1.3692h-9.7367v-1.4605l2.1299-0.27384v-17.83l-2.1299-0.27384v-1.4605zm-0.21299 1.8256h-5.416v17.648h5.416q1.9473 0 2.7993-0.85196 0.88239-0.85196 0.88239-2.7993v-10.315q0-1.9473-0.88239-2.7993-0.85196-0.88239-2.7993-0.88239z"/>
  <path d="m197.24 84.309h3.8034v14.483l1.9473 0.27384v1.3692h-5.7507v-1.3692l1.9169-0.27384v-12.84l-1.9169-0.27384zm2.0386-3.9251q-0.30427-0.3347-0.30427-0.7911 0-0.45641 0.30427-0.7911 0.3347-0.3347 0.79111-0.3347 0.48683 0 0.82153 0.3347t0.3347 0.7911q0 0.45641-0.3347 0.7911-0.3347 0.30427-0.82153 0.30427-0.45641 0-0.79111-0.30427z"/>
  <path d="m216.01 88.751h-1.4301l-0.27384-2.708h-3.56q-1.5214 0-2.1908 0.63897-0.63896 0.60854-0.63896 2.0082 0 1.4605 0.63896 2.0995 0.6694 0.63897 2.1908 0.63897h1.4301q4.4728 0 4.4728 4.4424v0.15214q0 4.4119-4.4728 4.4119h-6.0854v-4.3511h1.3996l0.30427 2.6167h4.1077q1.5518 0 2.1908-0.60854 0.66939-0.63897 0.66939-2.1603t-0.66939-2.1603q-0.6694-0.6694-2.1908-0.6694h-1.4301q-2.1908 0-3.3166-1.0954-1.1258-1.1258-1.1258-3.2557v-0.12171q0-4.3206 4.4424-4.3206h5.5377z"/>
  <path d="m220.76 95.962v-7.1808q0-4.4728 4.5032-4.4728h5.7812v4.4728h-1.3996l-0.30427-2.7384h-3.8034q-1.5518 0-2.2212 0.6694-0.6694 0.63897-0.6694 2.1603v6.9982q0 1.5214 0.6694 2.1908 0.66939 0.63897 2.2212 0.63897h5.5073v1.7343h-5.7812q-4.5032 0-4.5032-4.4728z"/>
  <path d="m247.2 88.66v7.4242q0 4.5032-4.5032 4.5032h-2.7384q-4.5032 0-4.5032-4.5032v-7.4242q0-4.5032 4.5032-4.5032h2.7384q4.5032 0 4.5032 4.5032zm-1.8865 7.3329v-7.2112q0-1.5518-0.6694-2.2212-0.66939-0.6694-2.1908-0.6694h-2.2212q-1.5518 0-2.2212 0.6694t-0.6694 2.1908v7.2112q0 1.5518 0.6694 2.2212 0.66939 0.6694 2.2212 0.6694h2.2212q1.5214 0 2.1908-0.6694t0.6694-2.1908z"/>
  <path d="m257.12 84.309h3.8947v4.4424h-1.3996l-0.27385-2.708h-1.9473q-1.5518 0-2.2212 0.6694-0.66939 0.6694-0.66939 2.1908v9.8888l1.9473 0.27384v1.3692h-5.7507v-1.3692l1.9169-0.27384v-9.9801q0-4.5032 4.5032-4.5032z"/>
  <path d="m268.99 98.701h4.5641v-12.658h-4.5641q-1.5518 0-2.2212 0.6694t-0.6694 2.1908v6.9678q0 1.5214 0.6694 2.1908 0.66939 0.63897 2.2212 0.63897zm4.5641-18.53-1.9169-0.27384v-1.3692h3.8034v20.264l1.9169 0.27384v1.3692h-8.6413q-4.5032 0-4.5032-4.4728v-7.1504q0-4.5032 4.5032-4.5032h4.8379z"/>
  <path d="m296.58 100.44h-9.7975v-1.4605l2.1299-0.27384v-17.83l-2.1299-0.27384v-1.4605h8.7934q2.6776 0 4.0468 1.3996 1.3996 1.3692 1.3996 4.0468v0.18256q0 1.0345-0.24342 1.8865-0.24342 0.82153-0.60854 1.2779-0.3347 0.42598-0.69983 0.73025-0.36512 0.27384-0.60854 0.36513l-0.24342 0.09128v0.21299q0.15214 0.03043 0.36513 0.09128 0.24342 0.03043 0.82153 0.3347 0.57812 0.30427 1.0345 0.76068 0.45641 0.45641 0.82153 1.3996 0.36513 0.91281 0.36513 2.1299v0.94324q0 2.6776-1.3996 4.0772-1.3692 1.3692-4.0468 1.3692zm-5.6899-1.8256h5.4769q1.9473 0 2.7993-0.85196 0.88239-0.88239 0.88239-2.8297v-0.94324q0-1.9778-0.94324-2.7993-0.94324-0.85196-3.0427-0.85196h-5.1726zm0-10.102h4.5032q1.9473 0 2.7993-0.85196 0.85195-0.88239 0.85195-2.8297v-0.18256q0-1.9473-0.88238-2.7993-0.85196-0.88239-2.7993-0.88239h-4.4728z"/>
  <path d="m317.73 88.66v7.4242q0 4.5032-4.5032 4.5032h-2.7384q-4.5032 0-4.5032-4.5032v-7.4242q0-4.5032 4.5032-4.5032h2.7384q4.5032 0 4.5032 4.5032zm-1.8865 7.3329v-7.2112q0-1.5518-0.6694-2.2212-0.66939-0.6694-2.1908-0.6694h-2.2212q-1.5518 0-2.2212 0.6694-0.66939 0.6694-0.66939 2.1908v7.2112q0 1.5518 0.66939 2.2212 0.6694 0.6694 2.2212 0.6694h2.2212q1.5214 0 2.1908-0.6694t0.6694-2.1908z"/>
  <path d="m321.08 86.043v-1.6735h1.6431q0.6694 0 0.6694-0.6694v-2.7689h1.8256v3.3774h3.7425v1.7343h-3.7425v9.9801q0 1.5214 0.66939 2.1908 0.6694 0.63897 2.1908 0.63897h1.8256v1.7343h-2.069q-4.5032 0-4.5032-4.4728v-10.071z"/>
 </g>
</svg>
