<svg width="117.92" height="39.305" version="1.1" viewBox="0 0 31.198 10.399" xmlns="http://www.w3.org/2000/svg" xmlns:xlink="http://www.w3.org/1999/xlink">
 <defs>
  <linearGradient id="a" x1="-8.4945" x2="47.697" y1="-4.3825" y2="7.9375" gradientTransform="matrix(1.6033 0 0 1.6033 .089128 -1.9656)" gradientUnits="userSpaceOnUse">
   <stop stop-color="#59b9ff" offset="0"/>
   <stop stop-color="#002a7f" offset="1"/>
  </linearGradient>
  <linearGradient id="b" x1="-8.4945" x2="47.697" y1="-4.3825" y2="7.9375" gradientTransform="matrix(1.6033 0 0 1.6033 .089128 -1.9656)" gradientUnits="userSpaceOnUse" xlink:href="#a"/>
 </defs>
 <g fill="url(#b)" stroke-width="1.0623" aria-label="Funkce">
  <path d="m0.5554 7.4639v-4.1301l-0.55562-0.092604v-1.0835h4.6765v2.0002h-1.1298l-0.13891-0.72231h-1.3705v1.528h1.528v1.2779h-1.528v1.2316l0.55562 0.083344v1.0835h-2.5929v-1.0835z"/>
  <path d="m5.0467 4.7136v-0.9816h1.8799v3.2967q0 0.23151 0.10186 0.33337t0.33337 0.10186h0.87048v-2.6577l-0.50932-0.092604v-0.9816h2.3892v0.9816l-0.50932 0.092604v2.7596l0.50932 0.092604v0.9816h-3.0559q-1.5002 0-1.5002-1.4909v-2.3429z"/>
  <path d="m15.826 7.6584v0.9816h-1.8799v-3.306q0-0.42598-0.42598-0.42598h-0.87974v2.6577l0.50932 0.092604v0.9816h-2.3892v-0.9816l0.50932-0.092604v-2.7596l-0.50932-0.092604v-0.9816h3.0559q1.5002 0 1.5002 1.4909v2.3429z"/>
  <path d="m16.428 8.64v-0.9816l0.50932-0.092604v-4.5191l-0.50932-0.092604v-0.9816h1.8799v3.5838h0.68527l0.66675-1.8243h1.528v0.9816l-0.50932 0.092604-0.51858 1.3335 0.62045 1.4261 0.50932 0.092604v0.9816h-1.4909l-0.80565-1.9076h-0.68527v0.83344l0.50932 0.092604v0.9816z"/>
  <path d="m24.753 4.908h-0.77787q-0.43524 0-0.43524 0.42598v1.6947q0 0.23151 0.10186 0.33337 0.10186 0.10186 0.33337 0.10186h1.8984v1.1761h-2.2132q-0.73157 0-1.1112-0.37968-0.37968-0.37968-0.37968-1.1112v-1.9262q0-0.71305 0.37968-1.102 0.37968-0.38894 1.1112-0.38894h2.2132v1.7873h-1.0279z"/>
  <path d="m30.902 8.64h-2.3799q-0.73157 0-1.1112-0.37968-0.37968-0.37968-0.37968-1.1112v-1.9725q0-0.73157 0.37968-1.1112 0.37968-0.37968 1.1112-0.37968h1.1853q0.73157 0 1.1112 0.37968 0.37968 0.37968 0.37968 1.1112v1.4261h-2.7966v0.42598q0 0.23151 0.10186 0.33337 0.10186 0.10186 0.33337 0.10186h2.0651zm-2.5003-3.3523v0.29633h1.4261v-0.29633q0-0.42598-0.43524-0.42598h-0.55562q-0.43524 0-0.43524 0.42598z"/>
 </g>
</svg>
